HIERARCHY
ROOT pelvis
{
  OFFSET 0 100 0
  CHANNELS 6 Xposition Yposition Zposition Zrotation Xrotation Yrotation
  JOINT pelvis_right_femur
  {
    OFFSET -10.78128 -3.44521 -0.5502486
    CHANNELS 3 Zrotation Xrotation Yrotation
    JOINT right_femur_tibia
    {
      OFFSET -0.8047443 -44.0398 -0.1307829
      CHANNELS 3 Zrotation Xrotation Yrotation
      JOINT right_tibia_foot
      {
        OFFSET 3.006224 -47.83518 -5
        CHANNELS 3 Zrotation Xrotation Yrotation
        End Site
        {
          OFFSET 0 -5 15
        }
      }
    }
  }
  JOINT pelvis_left_femur
  {
    OFFSET 10.78128 -3.44521 -0.5502486
    CHANNELS 3 Zrotation Xrotation Yrotation
    JOINT left_femur_tibia
    {
      OFFSET 0.8047443 -44.0398 -0.1307829
      CHANNELS 3 Zrotation Xrotation Yrotation
      JOINT left_tibia_foot
      {
        OFFSET -4.370144 -48.10324 -4.275266
        CHANNELS 3 Zrotation Xrotation Yrotation
        End Site
        {
          OFFSET 0 -5 15
        }
      }
    }
  }
  JOINT pelvis_spine1
  {
    OFFSET 0 6.468898 -3.129235
    CHANNELS 3 Zrotation Xrotation Yrotation
    JOINT spine1
    {
      OFFSET 0 23.15396 4.99043
      CHANNELS 3 Zrotation Xrotation Yrotation
      JOINT spine2
      {
        OFFSET 0 20.79997 -5.064912
        CHANNELS 3 Zrotation Xrotation Yrotation
        JOINT neck
        {
          OFFSET 0 14.38658 9.616178
          CHANNELS 3 Zrotation Xrotation Yrotation
          End Site
          {
            OFFSET 0 20 0
          }
        }
      }
      JOINT right_manubrium
      {
        OFFSET -5.722621 16.35077 3.967754
        CHANNELS 3 Zrotation Xrotation Yrotation
        JOINT right_clavicle
        {
          OFFSET -13.16364 1.694482 -4.693211
          CHANNELS 3 Zrotation Xrotation Yrotation
          JOINT right_humerus
          {
            OFFSET -28.5034 -0.3100689 -2.792744
            CHANNELS 3 Zrotation Xrotation Yrotation
            JOINT right_radius
            {
              OFFSET -25.15693 0.02248979 -1.271978
              CHANNELS 3 Zrotation Xrotation Yrotation
              End Site
              {
                OFFSET -15 0 0
              }
            }
          }
        }
      }
      JOINT left_manubrium
      {
        OFFSET 5.722621 16.35077 3.967754
        CHANNELS 3 Zrotation Xrotation Yrotation
        JOINT left_clavicle
        {
          OFFSET 13.16364 1.694482 -4.693211
          CHANNELS 3 Zrotation Xrotation Yrotation
          JOINT left_humerus
          {
            OFFSET 29.39168 -1.063119 -2.237045
            CHANNELS 3 Zrotation Xrotation Yrotation
            JOINT left_radius
            {
              OFFSET 24.59957 -0.9528479 0.9047498
              CHANNELS 3 Zrotation Xrotation Yrotation
              End Site
              {
                OFFSET 15 -0 -0
              }
            }
          }
        }
      }
    }
  }
}
MOTION
Frames: 9
Frame Time: 0.0416666666667
2071.688 100.6284 1823.55 3.06278 0.1431414 97.54503 3.463574 -27.17928 3.25077 -0 12.25728 -0 -2.993031 -4.123761 -7.883291 -3.875168 20.52277 -10.04028 -0 24.81295 -0 -9.014435 -17.68618 11.31989 -1.461624 -0.2957713 1.605301 1.846956 7.837116 -8.57795 2.167493 21.752 6.003242 2.472761 -19.11269 8.188214 2.346108 -12.82447 9.269014 92.19565 28.46282 -24.6358 -0 0 6.056602 -15.5943 12.7317 6.86488 6.951274 -22.28011 -3.293548 -81.67315 27.52117 3.580061 0 0 -27.53253 2.160033 9.622404 11.59266
2078.728 100.7015 1823.279 3.618602 -0.352112 97.57953 4.928901 -24.11821 4.273531 -0 14.03553 -0 -3.029118 -4.282098 -7.814785 -3.332446 19.54007 -9.498038 -0 33.47958 -0 -9.577332 -13.9464 11.52571 -0.7490459 -0.4238195 1.549323 2.066396 8.277378 -8.512528 2.047786 21.85312 5.95169 2.3393 -19.28634 8.067918 2.727302 -12.6546 9.642797 92.26531 28.48746 -24.62516 -0 0 5.07681 -15.66665 13.04431 6.945772 6.234937 -21.83873 -3.168121 -82.32538 26.69039 4.459942 0 0 -26.10265 2.564786 9.314501 11.05899
2085.754 101.4334 1823.014 4.512966 -0.5437785 97.2494 5.991494 -19.77808 5.054948 -0 15.99917 -0 -3.075013 -4.82463 -7.439008 -2.91268 16.29632 -8.977862 -0 43.28529 -0 -9.895318 -10.4092 12.15214 -0.1133385 -0.3489616 2.075202 1.959568 8.956402 -8.125622 1.966444 22.01947 5.880329 2.428548 -19.20855 7.781831 3.161906 -12.90208 10.10105 91.86741 28.63022 -24.04186 -0 0 5.224429 -16.06993 13.37769 7.105072 5.626936 -21.38866 -3.159734 -83.56556 26.00842 6.361133 0 0 -24.43836 2.629533 9.171188 10.94228
2092.533 102.6218 1822.735 5.515427 -0.2646541 96.60737 6.308462 -14.43981 5.440131 -0 16.97234 -0 -3.041959 -5.692593 -6.74011 -2.722203 10.78727 -8.466627 -0 52.35455 -0 -9.774581 -7.873951 13.14159 0.126887 -0.06257303 3.18217 1.560457 9.685538 -7.379431 1.983262 22.24402 5.751124 2.671126 -18.92152 7.427865 3.536661 -13.53274 10.54782 90.90445 28.91182 -22.74409 -0 0 6.46022 -16.76165 13.70932 7.403414 5.245004 -20.90969 -3.157884 -85.16648 25.41333 8.932807 0 0 -22.76256 2.499952 9.153586 11.00974
2098.954 103.9306 1822.429 6.4199 0.418218 95.81152 5.903604 -8.525152 5.474352 -0 16.55056 -0 -2.887426 -6.932938 -5.843609 -2.676058 3.744468 -7.884301 -0 58.35897 -0 -9.164214 -6.653686 14.35439 -0.1494201 0.3662991 4.565147 1.034114 10.22973 -6.392405 2.070015 22.52837 5.553119 2.876684 -18.52699 7.11692 3.695781 -14.43683 10.90073 89.43605 29.16941 -20.69267 -0 0 8.413245 -17.62638 13.90524 7.952014 5.063459 -20.31479 -3.05132 -86.78317 24.84346 11.61283 0 0 -21.12929 2.319686 9.073074 11.01592
2105.025 105.0063 1822.079 7.109312 1.197 95.02549 5.172004 -2.572249 5.337219 -0 15.12128 -0 -2.637856 -8.62959 -4.921787 -2.486263 -3.794073 -7.105903 -0 59.61599 -0 -8.263247 -6.486456 15.68081 -0.7267729 0.8553735 5.82709 0.5448037 10.46729 -5.375236 2.139136 22.82004 5.322013 2.920565 -18.10745 6.876113 3.557724 -15.53912 11.14022 87.61873 29.17818 -18.00033 -0 0 10.77234 -18.56629 13.81761 8.789452 5.010627 -19.56182 -2.835063 -88.22664 24.31563 14.0641 0 0 -19.43917 2.104843 8.757583 10.94206
2110.838 105.5849 1821.66 7.509159 1.704127 94.3266 4.583237 2.898365 5.15835 -0 13.37398 -0 -2.353824 -10.73991 -4.062998 -1.847352 -10.95369 -6.029508 -0 55.81382 -0 -7.408347 -6.826838 17.03245 -1.217265 1.336741 6.722716 0.162751 10.42906 -4.511772 2.109583 23.01218 5.129806 2.832267 -17.7293 6.657179 3.157701 -16.82358 11.29645 85.64616 28.819 -14.93691 -0 0 13.43783 -19.5459 13.38233 9.841369 5.052733 -18.71431 -2.589794 -89.5501 23.89041 16.33885 0 0 -17.58715 1.773875 8.182773 10.98591
2116.521 105.5473 1821.139 7.539591 1.733839 93.69674 4.37089 7.558294 4.929573 -0 11.85422 -0 -2.081603 -13.03105 -3.235977 -0.6787662 -17.15427 -4.694829 -0 48.00459 -0 -6.839358 -7.196309 18.27363 -1.351163 1.717446 7.233242 -0.1216458 10.21111 -3.889511 1.956507 23.01613 5.044652 2.717587 -17.48356 6.425824 2.590869 -18.25401 11.3893 83.7245 28.15155 -11.87024 -0 0 16.33357 -20.56116 12.64368 10.98166 5.181894 -17.89326 -2.376848 -90.87365 23.60312 18.6373 0 0 -15.60043 1.285458 7.474709 11.33338
2122.223 104.9263 1820.496 7.161056 1.350683 93.07342 4.430857 11.34538 4.583817 -0 10.89898 -0 -1.822575 -15.11866 -2.365883 0.7453275 -22.0299 -3.366379 -0 38.19199 -0 -6.562447 -7.357539 19.24674 -1.137131 1.869927 7.495476 -0.3480106 9.894192 -3.495056 1.728109 22.82677 5.084602 2.656158 -17.4569 6.209913 1.955149 -19.69421 11.39241 82.04313 27.36936 -9.157311 -0 0 19.21775 -21.59023 11.72616 12.08795 5.370692 -17.18777 -2.187179 -92.19071 23.43193 20.99053 0 0 -13.63977 0.7193167 6.824347 11.96695
